<svg xmlns="http://www.w3.org/2000/svg" width="32" height="32" fill="none"><path fill="#fff" d="M0 0h32v32H0z"/><rect width="32" height="32" fill="#83B3D3" rx="4"/><path fill="#23A9E1" d="M4.3 8.2 15.9 22 27.6 8.3 4.3 8.2Z"/><path fill="#fff" d="M13.1 13.3h6.3c-.5-.2-1.6-1.6-2.2-1.1 0 0-1.7-2-2.9-1-1 .8-1.4-.2-2.5.5-1.3.9.7 1.4 1.3 1.6Zm9.7-1.2h-3.5c1.4-1.6 2-1.4 3.5 0Z"/><path fill="#491213" d="M26.4 9.3v-.9h.8l-.8 1ZM8.5 12.7l2.2-1.8A9.7 9.7 0 0 1 16 9.2c2 0 4 1 5.2 1.8 1.4.9 2.2 1.7 2.3 1.8l-1 1c-1.6.3-2.8 1.5-4.4 1.2-.8-.1-.8-.6-1-1-.2-.4-.5-.3-.8-.5-.4-.1-.6-.4-1.3-.2-.6.1-.6 1-1.4 1-.4 0-.4-.6-1-1.3-1.5-1.8-2.9-1.6-3.8 0l-.3-.3Zm-3-4.3v.7l-.6-.7h.6Zm19.6 0h1.1v1.1L25.1 11V8.4Zm-1.5 4.2V8.4h1.2v2.7l-1.2 1.5Zm-.2-3.8v3.6l-1.3-1 1.3-2.6Zm-1.5-.1v2.5l-.6-.4-.8-.5L22 8.7Zm-1.6 0v1.5l-1.1-.6 1-1Zm.2-.3H22l-1.4 1.7V8.4Zm1.6 0h1.3L22 11V8.4Zm-3.2 0h1.4L19 9.6l-.1-1.2Zm-.2.2v.9L17.6 9l1-.5Zm-1.5 0V9l-.8-.2.8-.3Zm-2.5 0 .8.3c-.3 0-.6 0-.8.2v-.5Zm-1.5 0 1.1.5-1.1.4v-1Zm1.3.4-1.2-.6h1.2V9Zm1.3-.1-1-.5h1v.5Zm.2-.5h1L16 9v-.5Zm1.4 0h1.1l-1.1.6v-.6Zm-4.5 1.2-1.3-1.2H13v1.1H13Zm-1.3-1 1 1-1 .5V8.6Zm-1.6 0 1.3 1.7-1.3.9V8.7Zm-1.5.2 1.3 2.5-1.3 1.2V8.8ZM9.8 11 8.5 8.4h1.3V11Zm1.6-1L10 8.5h1.4v1.7Zm-4.6.7L5.6 9.3v-.9h1.2v2.3ZM7 8.4h1.3v4.1L7 11V8.4ZM4 8v5.3l12 14.5 12-14.3V8H4Z"/><path fill="#23A9E1" d="m15 24.7 1-1.5 1 1.5-1 1.6-1-1.6Z"/><path fill="#DC6243" d="M17.9 19.1c-1.2-.7-1-1.2 0-1.8.6-.2 1.8-1.2 2.3-.9l-2.3 2.7Zm-.8 1c-.8-.1-1.6-.2-2.3 0 .4 0 1.5.4.5.7.3.5 1 .4 1.3 0-.2 0-.3-.2-.4-.3.4 0 .8-.3.9-.5Zm.4-.6c-.3-.3-.7-.3-1 0-.4-.8-2-.6-2.7-.7.4 1 3.5 1.2 3.7.7Zm-2.5-.8c-.6-.2-2.5-.2-1.2-.7.4-.1 2.4 0 1.2.7Zm.7-1.1c-.1-.4.2-1 .7-.5.4.2-.3.7-.7.5Zm-1 0c-.8.3-2-.3-.6-.5.8-.2 1.7.1.6.5Zm-1-2.3c-.1.6-.5.7-.5 0 0-.8.6-.6 1.2-.9.5-.3.7-1.2 1.6-.7.3.3.8 0 .9.5 0 0-1 2.4-.5 2.4-1.2 0-.7-1.4-.2-2.3-.5.2-1.1 1.6-.6 1.8-.3.4-1.2 1-1.7.6-.4-.4-.2-.9-.2-1.4Zm-1.4 1c-2 0-.7-3 0-2.9.8.3.7 3 0 3Zm-2.3-3c-1 0-.5-.9.1-1 .7-.2 2 .4 2.4.8-.7.2-1.5.1-2.2.2-.1-.8-.3-.5-.3 0Z"/><path fill="#F49774" d="M17 17.4c-1-1.1 1.6-1 2-1.4.3.1 2.6-2 3.1-1.8-.4.5-1.2 2-1.8 2-.5 0-1-.2-1.3.2-.6.5-1.4.7-2 1Z"/><path fill="#F4B1A4" d="M17.3 16c-.5.4-1-.8 0-.7h1.9c-.5.6-1.1.8-1.9.8Z"/><path fill="#fff" d="m9.5 15.6.2.5-.1.4.5-.6L9 14.4l-.8.4c0 .1.3 0 .4 0l.5.2-1.5 1.2s-.2-.1-.2 0l.2.3.5.6c.2 0 0-.2 0-.3l1.5-1.2ZM8.3 14h.2l-.6-.7c0-.1-.2-.2-.2 0l-1.5 1.4c-.1 0-.2-.2-.3 0l.5.6.2.2v-.1L7 15C7.2 14.7 8 14 8.3 14Zm-2.1-.3c-.4.2-.9 0-1-.4-.1-.5.1-.9.5-1.2.3-.2.8-.2 1 .2v.6c0 .1-.2.2 0 .3l.6-.8c-.3-.1-.4-.4-.6-.6-.2-.2-.4-.5-.8-.5-.7-.1-1.3.6-1.4 1.2 0 .3 0 .7.3 1l.6.6.7-.3c.1 0 0 0 0 0s-.1 0 0 0Zm9.3 8.6-1.1-1.2-.1-.2v.3l-1.5 1.2-.4.1.8.8v-.2l.8-.7c.1-.1.2 0 .3.1v.4s-.2.2 0 .3l.6-.7c0-.1-.2 0-.1 0h-.3l-.2-.4.4-.2c.2 0 .3.4.4.5v.4c-.1.1-.2.2 0 .2l.4-.7ZM12 19.1c-.2 0-.5.1-.7.3-.5.4-.6 1.2-.2 1.7.5.6 1.2.7 1.9.3.5-.5.5-1.2.1-1.8-.3-.3-.7-.5-1-.5Zm.4.5c.4 0 .6.3.4.7-.1.3-.5.7-.8.8-.5.2-.8-.2-.6-.6.2-.4.5-.7.9-.9h.1Zm-1-1.7c.1 0 .2.2.3 0l-.5-.6c-.1 0 0 .2 0 .2l-.8.2.3-.6h.3l-.7-.8s-.1-.3-.2-.2v.4c0 .1-.2 1-.5 1.1a4 4 0 0 1-.6.5h-.3l.6.7.2.2v-.2c0-.1.6-.7.8-.7l1.1-.2c.1 0 0 0 0 0Zm8.8 2.5c0 .1.1.3 0 .4 0 .3-.2.7-.4.6l-.8-.6c.2-.3.4-.4.7-.3 0 0 .1 0 0-.1l-.7-.4v.3l-.2.3c-.2-.1-.4-.3-.2-.5.1-.2.2-.3.5-.4.1 0 .4.2.4 0l-.7-.4c0 .2-.8 1.1-1 1.3l-.2.2c0 .1.2 0 .2 0l1.6 1.3v.2h.1c.1 0 1-1.4 1.3-1.4l-.6-.9c-.1.1 0 .3 0 .4ZM19 22c-.5-.4-1.3.3-1.5.3-.2.1-.4-.1-.3-.3.1-.2.4-.3.6-.3h.3v-.1l-.6-.4c0 .3-.3.4-.5.6l-.4.7c0 .3.2.5.4.6.3.2.6 0 .8 0l.5-.4c.2 0 .5 0 .5.3-.1.3-.4.5-.6.6h-.5c0-.1-.2-.3-.3-.1l.9.6c0-.2 0-.3.2-.4l.5-.5c.3-.3.4-1 0-1.2Zm6.4-10.3-.4.4-.2.4c-.1 0-.2 0 0 .2.1-.2 1.2 1.7 1.2 2-.2 0-1.7-1.2-1.7-1.3v-.2l-.3.2-.2.3h.2l.6.4h-.7c-.2 0-.1-.1-.3-.2l-.5.6-.3.4c0 .1 0 0 .1 0l1.6 1.3.1.3.4-.5c0-.1 0 0-.2 0l-1.4-1.1 2-.1.2.3s-.1.1 0 .2l.3-.4v-.1l.1-.1.4-.5H26l-.3-.5.2-.3c.2 0 .8-.3.9 0v.3l.8-1h-.1c-.2.2-2-.6-2.1-.7l-.1-.3Zm-.1 1 .8.4h-.2l-.2.2-.4-.6Zm-2.4 2.8c-.4 0-.8.1-1 .5-.5.5-.5 1.3 0 1.7.6.5 1.4.4 1.8-.1.5-.6.4-1.4-.1-1.8-.2-.2-.4-.3-.7-.3Zm-.5.6.6.2c.3.2.8.6.6 1-.4.3-.9 0-1.1-.1-.3-.2-.8-.7-.5-1l.4-.1Zm-1.1 1.5c-.5 0-1 .2-1.2.6l-.7.9h.3a18 18 0 0 1 1.5 1.3s-.1.1 0 .2l1.2-1.5A1 1 0 0 0 22 18c-.3-.3-.6-.4-.8-.4Zm-.4.6c.6.2 1.3.8.8 1.3l-.1.2-1.5-1.2c.2-.2.5-.3.8-.3Z"/></svg>