<svg xmlns="http://www.w3.org/2000/svg" width="76" height="73" fill="none"><path fill="#000" fill-rule="evenodd" d="M38 .4.4 37.9l2.2 2.2 7.4-7.5V70H6v3h65v-3h-5V32.6l7.4 7.5 2.2-2.2-9.6-9.5V1H52v13.4L38 .4Zm17 17 8 8V4h-8v13.4Zm8 12.2-25-25-25 25V70h50V29.6ZM30 42v24h16V42H30Zm3 21V45h10v18H33ZM17 42h3v4h-3v-4Zm9 0h-3v4h3v-4Zm-9 6h3v4h-3v-4Zm9 0h-3v4h3v-4Zm24-6h3v4h-3v-4Zm9 0h-3v4h3v-4Zm-9 6h3v4h-3v-4Zm9 0h-3v4h3v-4ZM33 28a5 5 0 1 1 10 0 5 5 0 0 1-10 0Zm5-8a8 8 0 1 0 0 16 8 8 0 0 0 0-16Z" clip-rule="evenodd"/></svg>