<svg xmlns="http://www.w3.org/2000/svg" width="25" height="14" fill="none"><path fill="#83B3D3" fill-rule="evenodd" d="M24 1c.1-.6 0-1-.8-1h-2.7c-.6 0-1 .3-1.1.7C19.4.7 18 4 16.2 6c-.7.6-1 .8-1.3.8-.1 0-.4-.2-.4-.7V.9c0-.6-.2-.9-.7-.9H9.7c-.5 0-.7.3-.7.6 0 .6 1 .8 1 2.5V7c0 .8-.1 1-.5 1-.9 0-3-3.2-4.3-6.9C4.9.3 4.7 0 4 0H1.4C.6 0 .5.3.5.7c0 .7.9 4.1 4.1 8.6 2.2 3 5.3 4.7 8 4.7 1.7 0 2-.4 2-1v-2.3c0-.8 0-.9.6-.9.4 0 1 .2 2.6 1.7C19.6 13.2 20 14 21 14h2.6c.8 0 1.2-.4 1-1.1-.3-.7-1.1-1.8-2.3-3L20.4 8c-.4-.5-.3-.7 0-1.1 0 0 3.2-4.4 3.5-6Z" clip-rule="evenodd"/></svg>